<?xml version="1.0" encoding="UTF-8" standalone="no"?>
<svg
   id="svg8"
   width="417.2"
   height="407.25"
   version="1.1"
   viewBox="0 0 417.2 407.25"
   sodipodi:docname="glorious-model-o-wireless.svg"
   inkscape:version="1.4.3 (0d15f75042, 2025-12-25)"
   xmlns:inkscape="http://www.inkscape.org/namespaces/inkscape"
   xmlns:sodipodi="http://sodipodi.sourceforge.net/DTD/sodipodi-0.dtd"
   xmlns="http://www.w3.org/2000/svg"
   xmlns:svg="http://www.w3.org/2000/svg"
   xmlns:rdf="http://www.w3.org/1999/02/22-rdf-syntax-ns#"
   xmlns:cc="http://creativecommons.org/ns#"
   xmlns:dc="http://purl.org/dc/elements/1.1/">
  <defs
     id="defs1" />
  <sodipodi:namedview
     id="namedview1"
     pagecolor="#505050"
     bordercolor="#eeeeee"
     borderopacity="1"
     inkscape:showpageshadow="0"
     inkscape:pageopacity="0"
     inkscape:pagecheckerboard="0"
     inkscape:deskcolor="#505050"
     inkscape:zoom="4"
     inkscape:cx="193.75"
     inkscape:cy="179.25"
     inkscape:window-width="2560"
     inkscape:window-height="1011"
     inkscape:window-x="0"
     inkscape:window-y="0"
     inkscape:window-maximized="1"
     inkscape:current-layer="Device" />
  <metadata
     id="metadata5">
    <rdf:RDF>
      <cc:Work
         rdf:about="">
        <dc:format>image/svg+xml</dc:format>
        <dc:type
           rdf:resource="http://purl.org/dc/dcmitype/StillImage" />
      </cc:Work>
    </rdf:RDF>
  </metadata>
  <g
     id="Device"
     transform="matrix(.39933 0 0 .39933 5.4553 9.5977)">
    <path
       id="body"
       style="fill:#d3d3d0;stroke:#bbbeb7"
       d="m 240.52889,252.4325 -3.46016,-5.99316 h -6.9203 l -3.46016,5.99316 3.46016,5.99316 h 6.9203 z m -28.05026,0.82842 -3.46016,-5.99316 h -6.9203 l -3.46016,5.99316 3.46016,5.99316 h 6.9203 z m -28.07106,-0.89429 -3.46016,-5.99316 h -6.9203 l -3.46016,5.99316 3.46016,5.99316 h 6.9203 z m -42.91853,8.49049 -3.46016,-5.99316 h -6.9203 l -3.46016,5.99316 3.46016,5.99316 h 6.9203 z m 14.80762,-9.13694 -3.46016,-5.99316 h -6.9203 l -3.46016,5.99316 3.46016,5.99316 h 6.9203 z m 28.23743,17.5962 -3.46016,-5.99316 h -6.9203 l -3.46016,5.99316 3.46016,5.99316 h 6.9203 z m 100.34835,-6.93414 -3.46016,-5.99316 h -6.9203 l -3.46016,5.99316 3.46016,5.99316 h 6.9203 z m -13.81802,-7.83362 -3.46016,-5.99316 h -6.9203 l -3.46016,5.99316 3.46016,5.99316 h 6.9203 z m -15.76256,7.12131 -3.46016,-5.99316 h -6.9203 l -3.46016,5.99316 3.46016,5.99316 h 6.9203 z m -28.41422,0.93934 -3.46016,-5.99316 h -6.9203 l -3.46016,5.99316 3.46016,5.99316 h 6.9203 z m -28.59099,-0.53033 -3.46016,-5.99316 h -6.9203 l -3.46016,5.99316 3.46016,5.99316 h 6.9203 z m -28.64644,-0.34835 -3.46016,-5.99316 h -6.9203 l -3.46016,5.99316 3.46016,5.99316 h 6.9203 z m 71.7071,7.87868 -3.46016,-5.99316 h -6.9203 l -3.46016,5.99316 3.46016,5.99316 h 6.9203 z m -28.46967,0.35356 -3.46016,-5.99316 h -6.9203 l -3.46016,5.99316 3.46016,5.99316 h 6.9203 z m -57.58578,-0.7019 -3.46016,-5.99316 h -6.9203 l -3.46016,5.99316 3.46016,5.99316 h 6.9203 z m 115.09009,1.33794 -3.46016,-5.99316 h -6.9203 l -3.46016,5.99316 3.46016,5.99316 h 6.9203 z m -15.09009,7.07106 -3.46016,-5.99316 h -6.9203 l -3.46016,5.99316 3.46016,5.99316 h 6.9203 z m -27.53033,0.35356 -3.46016,-5.99316 h -6.9203 l -3.46016,5.99316 3.46016,5.99316 h 6.9203 z m -28.89429,0.23223 -3.46016,-5.99316 h -6.9203 l -3.46016,5.99316 3.46016,5.99316 h 6.9203 z m -29.50952,-0.18198 -3.46016,-5.99316 h -6.9203 l -3.46016,5.99316 3.46016,5.99316 h 6.9203 z m 114.33794,16.71231 -3.46016,-5.99316 h -6.9203 l -3.46016,5.99316 3.46016,5.99316 h 6.9203 z m -13.51992,-8.46967 -3.46016,-5.99316 h -6.9203 l -3.46016,5.99316 3.46016,5.99316 h 6.9203 z m -29.2981,-0.0555 -3.46016,-5.99316 h -6.9203 l -3.46016,5.99316 3.46016,5.99316 h 6.9203 z m -28.3033,-0.41941 -3.46016,-5.99316 h -6.9203 l -3.46016,5.99316 3.46016,5.99316 h 6.9203 z m -28.64124,1.06586 -3.46016,-5.99316 h -6.9203 l -3.46016,5.99316 3.46016,5.99316 h 6.9203 z m -28.82322,-1.35355 -3.46016,-5.99316 h -6.9203 l -3.46016,5.99316 3.46016,5.99316 h 6.9203 z m 99.94454,9.05545 -3.46016,-5.99316 h -6.9203 l -3.46016,5.99316 3.46016,5.99316 h 6.9203 z m -27.94454,0.35356 -3.46016,-5.99316 h -6.9203 l -3.46016,5.99316 3.46016,5.99316 h 6.9203 z m -28.76257,0 -3.46016,-5.99316 h -6.9203 l -3.46016,5.99316 3.46016,5.99316 h 6.9203 z m -28.94454,0.12132 -3.46016,-5.99316 h -6.9203 l -3.46016,5.99316 3.46016,5.99316 h 6.9203 z m -28.9948,-0.47488 -3.46016,-5.99316 h -6.9203 l -3.46016,5.99316 3.46016,5.99316 h 6.9203 z m 14.34315,8.11612 -3.46016,-5.99316 h -6.9203 l -3.46016,5.99316 3.46016,5.99316 h 6.9203 z m 29.48008,1.82843 -3.46016,-5.99316 h -6.9203 l -3.46016,5.99316 3.46016,5.99316 h 6.9203 z m 28.48007,-1.64645 -3.46016,-5.99316 h -6.9203 l -3.46016,5.99316 3.46016,5.99316 h 6.9203 z m 27.81802,0.88388 -3.46016,-5.99316 h -6.9203 l -3.46016,5.99316 3.46016,5.99316 h 6.9203 z m 29.05546,0.22183 -3.46016,-5.99316 h -6.9203 l -3.46016,5.99316 3.46016,5.99316 h 6.9203 z m 14.81802,7.94975 -3.46016,-5.99316 h -6.9203 l -3.46016,5.99316 3.46016,5.99316 h 6.9203 z m -29.6915,-0.0555 -3.46016,-5.99316 h -6.9203 l -3.46016,5.99316 3.46016,5.99316 h 6.9203 z m -27.77817,-0.2981 -3.46016,-5.99316 h -6.9203 l -3.46016,5.99316 3.46016,5.99316 h 6.9203 z m -28.52513,0.23744 -3.46016,-5.99316 h -6.9203 l -3.46016,5.99316 3.46016,5.99316 h 6.9203 z m -29.06928,0.26866 -3.46016,-5.99316 h -6.9203 l -3.46016,5.99316 3.46016,5.99316 h 6.9203 z m -28.93592,-0.15254 -3.46016,-5.99316 h -6.9203 l -3.46016,5.99316 3.46016,5.99316 h 6.9203 z m 143.40533,17.07322 -3.46016,-5.99316 h -6.9203 l -3.46016,5.99316 3.46016,5.99316 h 6.9203 z m -143.375,-0.25 -3.46016,-5.99316 h -6.9203 l -3.46016,5.99316 3.46016,5.99316 h 6.9203 z m 128.25,-6.875 -3.46016,-5.99316 h -6.9203 l -3.46016,5.99316 3.46016,5.99316 h 6.9203 z m -28.5,-0.625 -3.46016,-5.99316 h -6.9203 l -3.46016,5.99316 3.46016,5.99316 h 6.9203 z m -27.5,-1 -3.46016,-5.99316 h -6.9203 l -3.46016,5.99316 3.46016,5.99316 h 6.9203 z m -28.75,1.625 -3.46016,-5.99316 h -6.9203 l -3.46016,5.99316 3.46016,5.99316 h 6.9203 z m -28.875,-1 -3.46016,-5.99316 h -6.9203 l -3.46016,5.99316 3.46016,5.99316 h 6.9203 z m 99.125,8.125 -3.46016,-5.99316 h -6.9203 l -3.46016,5.99316 3.46016,5.99316 h 6.9203 z m -28.375,-0.125 -3.46016,-5.99316 h -6.9203 l -3.46016,5.99316 3.46016,5.99316 h 6.9203 z m -27.75,0.5 -3.46016,-5.99316 h -6.9203 l -3.46016,5.99316 3.46016,5.99316 h 6.9203 z m -28.375,0.25 -3.46016,-5.99316 h -6.9203 l -3.46016,5.99316 3.46016,5.99316 h 6.9203 z m 14.25,8 -3.46016,-5.99316 h -6.9203 l -3.46016,5.99316 3.46016,5.99316 h 6.9203 z m 28.5,0.625 -3.46016,-5.99316 h -6.9203 l -3.46016,5.99316 3.46016,5.99316 h 6.9203 z m 27.375,0 -3.46016,-5.99316 h -6.9203 l -3.46016,5.99316 3.46016,5.99316 h 6.9203 z m 28.75,-0.5 -3.46016,-5.99316 h -6.9203 l -3.46016,5.99316 3.46016,5.99316 h 6.9203 z m -14.625,7.625 -3.46016,-5.99316 h -6.9203 l -3.46016,5.99316 3.46016,5.99316 h 6.9203 z m -27.5,0.625 -3.46016,-5.99316 h -6.9203 l -3.46016,5.99316 3.46016,5.99316 h 6.9203 z m -28.125,0.25 -3.46016,-5.99316 h -6.9203 l -3.46016,5.99316 3.46016,5.99316 h 6.9203 z m -43.25,-8.875 -3.46016,-5.99316 h -6.9203 l -3.46016,5.99316 3.46016,5.99316 h 6.9203 z m 15.125,8.625 -3.46016,-5.99316 h -6.9203 l -3.46016,5.99316 3.46016,5.99316 h 6.9203 z m 42.375,8.75 -3.46016,-5.99316 h -6.9203 l -3.46016,5.99316 3.46016,5.99316 h 6.9203 z m -28.625,0.125 -3.46016,-5.99316 h -6.9203 l -3.46016,5.99316 3.46016,5.99316 h 6.9203 z m 55.875,-0.875 -3.46016,-5.99316 h -6.9203 l -3.46016,5.99316 3.46016,5.99316 h 6.9203 z m 28.75,-0.5 -3.46016,-5.99316 h -6.9203 l -3.46016,5.99316 3.46016,5.99316 h 6.9203 z m -42.5,9.25 -3.46016,-5.99316 h -6.9203 l -3.46016,5.99316 3.46016,5.99316 h 6.9203 z m -27.625,-0.625 -3.46016,-5.99316 h -6.9203 l -3.46016,5.99316 3.46016,5.99316 h 6.9203 z m -43.75,-8.5 -3.46016,-5.99316 h -6.9203 l -3.46016,5.99316 3.46016,5.99316 h 6.9203 z m 15,8.875 -3.46016,-5.99316 h -6.9203 l -3.46016,5.99316 3.46016,5.99316 h 6.9203 z m 84,-0.5 -3.46016,-5.99316 h -6.9203 l -3.46016,5.99316 3.46016,5.99316 h 6.9203 z m -14.125,8.375 -3.46016,-5.99316 h -6.9203 l -3.46016,5.99316 3.46016,5.99316 h 6.9203 z m -27.5,0.25 -3.46016,-5.99316 h -6.9203 l -3.46016,5.99316 3.46016,5.99316 h 6.9203 z m -28,0 -3.46016,-5.99316 h -6.9203 l -3.46016,5.99316 3.46016,5.99316 h 6.9203 z m 84.375,-1.75 -3.46016,-5.99316 h -6.9203 l -3.46016,5.99316 3.46016,5.99316 h 6.9203 z m -14.5,8.625 -3.46016,-5.99316 h -6.9203 l -3.46016,5.99316 3.46016,5.99316 h 6.9203 z m -99.25,-7.125 -3.46016,-5.99316 h -6.9203 l -3.46016,5.99316 3.46016,5.99316 h 6.9203 z m 14.625,8.375 -3.46016,-5.99316 h -6.9203 l -3.46016,5.99316 3.46016,5.99316 h 6.9203 z m 14.25126,8.25996 -3.46016,-5.99316 h -6.9203 l -3.46016,5.99316 3.46016,5.99316 h 6.9203 z m 55.95324,-0.53033 -3.46016,-5.99316 h -6.9203 l -3.46016,5.99316 3.46016,5.99316 h 6.9203 z m -41.55805,-7.32062 -3.46016,-5.99316 h -6.9203 l -3.46016,5.99316 3.46016,5.99316 h 6.9203 z m 27.85355,-0.40901 -3.46016,-5.99316 h -6.9203 l -3.46016,5.99316 3.46016,5.99316 h 6.9203 z m -13.82935,8.07757 -3.46016,-5.99316 h -6.9203 l -3.46016,5.99316 3.46016,5.99316 h 6.9203 z m -56.51012,-169.4865 -3.46016,-5.99316 h -6.9203 l -3.46016,5.99316 3.46016,5.99316 h 6.9203 z m 13.58579,9.23223 -3.46016,-5.99316 h -6.9203 l -3.46016,5.99316 3.46016,5.99316 h 6.9203 z m 14.77297,-6.76256 -3.46016,-5.99316 h -6.9203 l -3.46016,5.99316 3.46016,5.99316 h 6.9203 z m 14.75216,8.46967 -3.46016,-5.99316 h -6.9203 l -3.46016,5.99316 3.46016,5.99316 h 6.9203 z M 240.71087,217.49316 237.25071,211.5 h -6.9203 l -3.46016,5.99316 3.46016,5.99316 h 6.9203 z m 29.35355,0.75736 -3.46016,-5.99316 h -6.9203 l -3.46016,5.99316 3.46016,5.99316 h 6.9203 z m 14.46967,8.24264 -3.46016,-5.99316 h -6.9203 l -3.46016,5.99316 3.46016,5.99316 h 6.9203 z m -28.77297,0.23223 -3.46016,-5.99316 h -6.9203 l -3.46016,5.99316 3.46016,5.99316 h 6.9203 z m -29.46967,0.40901 -3.46016,-5.99316 h -6.9203 l -3.46016,5.99316 3.46016,5.99316 h 6.9203 z m -85.17158,-1.40381 -3.46016,-5.99316 h -6.9203 l -3.46016,5.99316 3.46016,5.99316 h 6.9203 z m 14.23744,9.2929 -3.46016,-5.99316 h -6.9203 l -3.46016,5.99316 3.46016,5.99316 h 6.9203 z m 28.88389,1.06066 -3.46016,-5.99316 h -6.9203 l -3.46016,5.99316 3.46016,5.99316 h 6.9203 z m 28.05545,0.23223 -3.46016,-5.99316 h -6.9203 l -3.46016,5.99316 3.46016,5.99316 h 6.9203 z m 28.77297,-1.41421 -3.46016,-5.99316 h -6.9203 l -3.46016,5.99316 3.46016,5.99316 h 6.9203 z m 29.75736,0.64124 -3.46016,-5.99316 h -6.9203 l -3.46016,5.99316 3.46016,5.99316 h 6.9203 z m 14.06066,9.0052 -3.46016,-5.99316 h -6.9203 l -3.46016,5.99316 3.46016,5.99316 h 6.9203 z m -29.0052,-0.64644 -3.46016,-5.99316 h -6.9203 l -3.46016,5.99316 3.46016,5.99316 h 6.9203 z m -29.28769,0.53033 -3.46016,-5.99316 h -6.9203 l -3.46016,5.99316 3.46016,5.99316 h 6.9203 z m -28.05546,0.59099 -3.46016,-5.99316 h -6.9203 l -3.46016,5.99316 3.46016,5.99316 h 6.9203 z m -27.82322,-0.76777 -3.46016,-5.99316 h -6.9203 l -3.46016,5.99316 3.46016,5.99316 h 6.9203 z m -29.12652,-0.40381 -3.46016,-5.99316 h -6.9203 l -3.46016,5.99316 3.46016,5.99316 h 6.9203 z M 187.47391,17.273621 c -1.06861,0.770707 -0.0986,0.370179 -0.94482,0.505951 -2.0238,0.324656 -11.25232,2.687891 -20.23724,5.299908 -8.9398,2.59844 -21.54306,7.640381 -28.45586,9.840689 -7.00265,2.228661 -13.93861,5.095052 -15.66212,6.471542 -1.70155,1.35892 -4.20375,4.36867 -5.56067,6.688778 -1.35693,2.319308 -2.92709,6.855697 -3.48855,10.079488 -0.56106,3.223791 -1.51426,12.896762 -2.11884,21.495934 -0.69005,9.820324 -0.88851,29.011329 -0.53271,51.609409 0.31108,19.7852 0.84738,51.89693 1.1916,71.36027 0.44845,25.35746 0.28432,38.45308 -0.58342,46.20248 -0.66608,5.94722 -1.86407,13.91106 -2.66193,17.69551 -0.79787,3.78485 -2.06174,12.85004 -2.80809,20.1462 -1.02628,10.02957 -1.11533,15.78631 -0.36699,23.59282 0.54469,5.67927 2.11965,14.30799 3.50053,19.17343 1.38168,4.86583 4.1734,12.43833 6.20439,16.82776 2.03099,4.38944 5.59062,10.80428 7.91153,14.25409 2.3213,3.45021 7.5657,9.74165 11.65404,13.98174 4.08834,4.24048 10.9664,10.05752 15.28356,12.92751 4.31756,2.87038 10.49958,6.31181 13.73735,7.64677 3.23857,1.33496 8.09562,3.13674 10.79389,4.00328 2.69867,0.86655 8.82719,2.24943 13.61995,3.07484 7.60284,1.30941 15.89493,1.41443 17.2838,1.41084 4.66098,0.0391 12.29817,-0.58822 17.05938,-1.40844 4.79316,-0.82542 10.92167,-2.20909 13.61995,-3.07564 2.69827,-0.86655 7.55532,-2.66792 10.79349,-4.00288 3.23816,-1.33536 9.42019,-4.77639 13.73695,-7.64677 4.31795,-2.87039 11.19601,-8.68663 15.28396,-12.92672 4.08834,-4.24048 9.33354,-10.53272 11.65444,-13.98254 2.32131,-3.45021 5.88093,-9.86385 7.91193,-14.25368 2.03059,-4.38944 4.82231,-11.96233 6.20359,-16.82817 1.38128,-4.86583 2.95664,-13.49416 3.50092,-19.17343 0.74875,-7.8069 0.6589,-13.56324 -0.36738,-23.59241 -0.74635,-7.29696 -2.00943,-16.36175 -2.80729,-20.1462 -0.79826,-3.78485 -1.99585,-11.74909 -2.66193,-17.69631 -0.86775,-7.7478 -1.03227,-20.84343 -0.58382,-46.20248 0.34422,-19.46335 0.88092,-51.57746 1.192,-71.36027 0.3554,-22.59649 0.15693,-41.785893 -0.53311,-51.609411 -0.60419,-8.598773 -1.55739,-18.271744 -2.11884,-21.495535 -0.56106,-3.223791 -2.13123,-7.76018 -3.48815,-10.079888 -1.35692,-2.320107 -3.85913,-5.329059 -5.56067,-6.687979 -1.72391,-1.37649 -8.65987,-4.24328 -15.66252,-6.47234 -6.91241,-2.200309 -19.71772,-6.628878 -28.45546,-9.84069 -8.73814,-3.211811 -17.59328,-5.206065 -19.61709,-5.53072 -3.38552,-0.543089 -2.55251,-1.291433 -3.05567,0.799459 l 0.17491,2.411953 h -33.17754 l -0.39853,-3.269714 c -0.19527,-1.601314 0.96638,-0.199665 0.19687,-0.322659 z"
       inkscape:label="body"
       transform="matrix(2.5041945,0,0,2.5041945,-13.661132,-24.034508)"
       sodipodi:nodetypes="ccccccccccccccccccccccccccccccccccccccccccccccccccccccccccccccccccccccccccccccccccccccccccccccccccccccccccccccccccccccccccccccccccccccccccccccccccccccccccccccccccccccccccccccccccccccccccccccccccccccccccccccccccccccccccccccccccccccccccccccccccccccccccccccccccccccccccccccccccccccccccccccccccccccccccccccccccccccccccccccccccccccccccccccccccccccccccccccccccccccccccccccccccccccccccccccccccccccccccccccccccccccccccccccccccccccccccccccccccccccccccccccccccccccccccccccccccccccccccccccccccccccccccccccccccccccccccccccccccccccccccccccccccccccccccccccccccccccccccccccccccccccccccccccccccccccccccccccccccccccccccccccccccccccccccccccccccccccccccccccccccccccccccccccccccccccccccccccccccccccccccccccccccccccccccccccccccccccccccccccccccccccccccccsccccscccccscccccsccsccsccscccsscccccscscccccc" />
    <path
       id="button7"
       d="m 278.37338,107.66898 a 0.24906275,0.24906275 0 0 1 -0.0781,0.17386 l -4.6543,4.30859 a 0.24906275,0.24906275 0 0 1 -0.34571,-0.008 l -4.30664,-4.30666 a 0.24906275,0.24906275 0 0 1 0.27734,-0.40429 l 4.20899,1.90431 4.55468,-1.90821 a 0.24906275,0.24906275 0 0 1 0.34375,0.24038 z"
       style="color:#000000;display:inline;overflow:visible;vector-effect:none;fill:#888a85;fill-opacity:1;stroke:none;stroke-width:0.955552;stroke-linecap:butt;stroke-linejoin:bevel;stroke-miterlimit:4;stroke-dasharray:none;stroke-dashoffset:0;stroke-opacity:1;marker:none;marker-start:none;marker-mid:none;marker-end:none;paint-order:normal"
       inkscape:connector-curvature="0"
       inkscape:label="button7"
       transform="matrix(2.5041945,0,0,2.5041945,-185.92968,-9.0762026)" />
    <path
       id="button6"
       d="m 269.24475,39.304509 a 0.24906275,0.24906275 0 0 1 0.0781,-0.17386 l 4.6543,-4.30859 a 0.24906275,0.24906275 0 0 1 0.34571,0.008 l 4.30664,4.30666 a 0.24906275,0.24906275 0 0 1 -0.27734,0.40429 l -4.20899,-1.90431 -4.55468,1.90821 a 0.24906275,0.24906275 0 0 1 -0.34375,-0.24038 z"
       style="color:#000000;display:inline;overflow:visible;vector-effect:none;fill:#888a85;fill-opacity:1;stroke:none;stroke-width:0.955552;stroke-linecap:butt;stroke-linejoin:bevel;stroke-miterlimit:4;stroke-dasharray:none;stroke-dashoffset:0;stroke-opacity:1;marker:none;marker-start:none;marker-mid:none;marker-end:none;paint-order:normal"
       inkscape:connector-curvature="0"
       inkscape:label="button6"
       transform="matrix(2.5041945,0,0,2.5041945,-185.92968,-9.0762026)" />
    <path
       id="button5"
       d="m489.34 281.01c5.882-1.732 12.076-3.022 21.314 0l0.853 80.14c-7.046 2.3-14.292 3.864-23.02 0z"
       style="fill:#fff;stroke-width:3.6851;stroke:#bbbeb7"
       inkscape:label="button5" />
    <path
       id="button4"
       d="m262.31 274.63c-0.535 9.25-3.671 13.025-5.316 13.65-3.149 1.198-3.723 9.465-3.723 53.418 0 51.336 0.071 52.023 5.407 53.406l3.287 0.852c-0.657-38.935 0.868-78.016 0.393-108.18-0.068-4.806 0.092-8.977 0.04-13.233z"
       style="fill:#fff;stroke-width:2;stroke:#bbbeb7"
       inkscape:label="button4" />
    <path
       id="button3"
       d="m261.8 397.34-3.12 1.148c-4.775 1.756-5.4 3.782-5.343 17.446 0.036 8.505 1.125 32.505 2.418 53.334 1.618 26.054 3.505 39.616 6.05 43.465 0.723 1.094 3.978 3.443 4.4 5.062-0.016-15.225-1.449-30.218-1.833-51.932-0.33-18.706-2.158-44.02-2.572-68.522z"
       style="fill:#fff;stroke-width:2;stroke:#bbbeb7"
       inkscape:label="button3" />
    <path
       id="button2"
       style="fill:#d3d3cf;stroke:#bbbeb7;stroke-width:4.1736"
       inkscape:label="button2"
       d="m 523.46125,139.24985 -0.31014,-38.95501 c -4.144,-4.379503 -12.90766,-6.370665 -22.16603,-6.31429 -9.25838,0.05638 -19.01037,2.162808 -25.13487,5.976808 l 0.002,39.289882 -0.3546,74.48457 -0.33142,8.11329 c 0,0 0.18312,2.95948 14.83848,3.26004 l 0.90004,31.26166 c 6.35952,1.93215 10.21218,2.06959 17.05984,0.53312 l -0.63701,-32.51338 c 15.49683,-0.22592 15.77812,-2.97959 15.77812,-2.97959 l 0.72651,-7.67793 z"
       sodipodi:nodetypes="ccsccccccccccc" />
    <path
       id="button1"
       style="fill:#d3d3d0;stroke:#bbbeb7"
       d="m 251.48815,174.42046 h -6.9203 l -3.46016,-5.99316 3.46016,-5.99316 h 6.9203 l 3.46016,5.99316 z m -15.11612,9.53553 h -6.9203 l -3.46016,-5.99316 3.46016,-5.99316 h 6.9203 l 3.46016,5.99316 z m -14.65167,9.06066 h -6.9203 l -3.46016,-5.99316 3.46016,-5.99316 h 6.9203 l 3.46016,5.99316 z m 58.35877,-50.17678 h -6.9203 l -3.46016,-5.99316 3.46016,-5.99316 h 6.9203 l 3.46016,5.99316 z m -0.18198,15.58579 h -6.9203 l -3.46016,-5.99316 3.46016,-5.99316 h 6.9203 l 3.46016,5.99316 z m -14.44886,7.63604 h -6.9203 l -3.46016,-5.99316 3.46016,-5.99316 h 6.9203 l 3.46016,5.99316 z m 14.15597,7.66726 h -6.9203 l -3.46016,-5.99316 3.46016,-5.99316 h 6.9203 l 3.46016,5.99316 z m -14.40381,9.05025 h -6.9203 l -3.46016,-5.99316 3.46016,-5.99316 h 6.9203 l 3.46016,5.99316 z m -28.88909,-14.99999 h -6.9203 l -3.46016,-5.99316 3.46016,-5.99316 h 6.9203 l 3.46016,5.99316 z m 30.00521,-16.70191 h -6.9203 l -3.46016,-5.99316 3.46016,-5.99316 h 6.9203 l 3.46016,5.99316 z m -15.06066,7.34315 h -6.9203 l -3.46016,-5.99316 3.46016,-5.99316 h 6.9203 l 3.46016,5.99316 z M 220.88186,11.154288 281.18468,27.456936 c 11.08939,3.990904 17.22709,15.184523 17.17838,29.435413 0.6513,16.896451 0.238,34.353161 0.7116,51.525551 0.64732,23.47341 -1.08618,45.37187 -1.06062,62.11578 -10.11463,5.42929 -24.46056,13.81362 -39.84994,19.29283 -17.33451,6.17204 -36.4133,8.39472 -50.1239,8.09841 l 0.028,-40.05679 c 4.90138,-0.37856 6.21118,-2.51778 6.31541,-5.23402 v -30.79393 c 0.01,-1.85449 -2.10846,-3.63191 -6.33577,-3.74053 l 0.008,-18.843979 c 2.7198,-0.04721 5.32635,-0.75836 7.54147,-2.008303 3.81859,-2.15474 6.47394,-5.910627 6.54091,-10.626498 z"
       inkscape:label="button1"
       transform="matrix(2.5041945,0,0,2.5041945,-13.661132,-24.034508)" />
    <path
       id="button0"
       style="fill:#d3d3d0;fill-rule:nonzero;stroke:#bbbeb7"
       d="m 171.08523,169.49836 -3.46016,-5.99316 h -6.9203 l -3.46016,5.99316 3.46016,5.99316 h 6.9203 z m 14.03985,8.52513 -3.46016,-5.99316 h -6.9203 l -3.46016,5.99316 3.46016,5.99316 h 6.9203 z m 13.35875,8.76777 -3.46016,-5.99316 h -6.9203 l -3.46016,5.99316 3.46016,5.99316 h 6.9203 z M 185.30706,161.49316 181.8469,155.5 h -6.9203 l -3.46016,5.99316 3.46016,5.99316 h 6.9203 z m -44,-25.01041 -3.46016,-5.99316 h -6.9203 l -3.46016,5.99316 3.46016,5.99316 h 6.9203 z m 0.45406,16.5962 -3.46016,-5.99316 h -6.9203 l -3.46016,5.99316 3.46016,5.99316 h 6.9203 z m 14.42462,9 -3.46016,-5.99316 h -6.9203 l -3.46016,5.99316 3.46016,5.99316 h 6.9203 z m -14.40901,7.49569 -3.46016,-5.99316 h -6.9203 l -3.46016,5.99316 3.46016,5.99316 h 6.9203 z m 14.75215,8.03464 -3.46016,-5.99316 h -6.9203 l -3.46016,5.99316 3.46016,5.99316 h 6.9203 z m 13.82843,-23.23744 -3.46016,-5.99316 h -6.9203 l -3.46016,5.99316 3.46016,5.99316 h 6.9203 z m -14.23223,-9.05546 -3.46016,-5.99316 h -6.9203 l -3.46016,5.99316 3.46016,5.99316 h 6.9203 z M 188.54411,11.153889 128.24129,27.456936 c -11.0894,3.990904 -17.2271,15.184124 -17.17838,29.435413 -0.65091,16.896051 -0.238,34.352762 -0.71161,51.525551 -0.64731,23.47302 0.63694,45.37187 0.61178,62.11578 9.61986,5.35901 24.9094,13.81362 40.30038,19.29323 17.33492,6.17204 36.41331,8.39432 50.1239,8.09841 l -0.028,-40.05679 c -4.90178,-0.37857 -6.21118,-2.51818 -6.3158,-5.23402 v -30.79393 c -0.01,-1.85449 2.10846,-3.63231 6.33617,-3.74053 l -0.008,-18.844379 C 193.96302,99.127486 187.39524,94.072368 187.28902,86.62087 Z"
       inkscape:label="button0"
       sodipodi:nodetypes="ccccccccccccccccccccccccccccccccccccccccccccccccccccccccccccccccccccccccccccccccccccccccccc"
       transform="matrix(2.5041945,0,0,2.5041945,-13.661132,-24.034508)" />
    <g
       id="led0"
       transform="translate(-10.96,25.279999)">
      <path
         id="led0-2"
         d="m279.38 427c0.151 38.58 3.017 78.187 3.754 116.68 0.3 15.63 0.719 31.446 0.055 46.897-2.158 50.239-6.551 97.71-10.901 167.04l-2.434-23.16 0.406-16.518c5.113-61.662 5.264-77.245 8.532-137.14 1.018-18.646-0.04-39.217-0.446-61.227-0.058-3.132-2.155-60.786-3.255-117.56-1.012-52.193-1.044-103.87-0.88-106.6 1.338 46.532 3.213 85.679 5.17 131.59z"
         style="fill:#fff;stroke-width:2.531;stroke:#bbbeb7"
         inkscape:label="led0-2" />
      <path
         id="led0-1"
         d="m746.4 312.2c-3.124 15.783-6.689 88.109-7.323 93.209-11.282 90.749-16.763 178.16 1.934 265.1l6.247 35.496 4.445 42.81 0.03-25.27-1.74-22.972-2.13-16.244-4.397-21.916c-5.624-29.965-9.837-69.828-10.382-106.89-1-68.028 9.133-144.56 10.42-162.85 1.157-16.455 3.183-77.893 2.896-80.462z"
         style="fill:#fff;stroke-width:2.531;stroke:#bbbeb7"
         inkscape:label="led0-1" />
      <path
         id="led0-3"
         d="m 473.98078,101.28247 c -3.74238,2.60047 -6.75784,5.74289 -8.77955,9.46967 l -0.429,1.874 0.15367,101.32566 c 3.58573,2.30075 7.3414,4.73375 10.63598,6.37277 z m 48.87038,118.91803 c 4.47589,-2.40674 7.07328,-4.91864 10.62865,-7.43319 -0.382,-40.36099 -0.18858,-70.77522 -0.13658,-101.13522 -2.66635,-4.07074 -5.80773,-8.00409 -9.38506,-10.61261 z"
         style="fill:#ffffff;stroke:#bbbeb7;stroke-width:4.1736"
         inkscape:label="led0-3"
         sodipodi:nodetypes="ccccccccccc"
         transform="translate(10.96,-25.28)" />
    </g>
  </g>
  <g
     id="Buttons"
     transform="translate(-68.792 5.9733)">
    <g
       id="button7-path"
       transform="translate(9.1764118,28.041748)"
       inkscape:label="button7-path">
      <rect
         id="button7-leader"
         x="475.81534"
         y="80.942093"
         width="1"
         height="1"
         style="color:#000000;text-align:start;overflow:visible;fill:#888a85;fill-opacity:1;stroke:none;stroke-linecap:round"
         inkscape:label="button7-leader" />
      <path
         id="p9"
         d="m 274.02,81.435 201.29533,0.0075"
         style="color:#000000;fill:none;stroke:#888a85;stroke-linecap:square;paint-order:normal"
         inkscape:label="p9"
         sodipodi:nodetypes="cc" />
      <rect
         id="r9"
         x="270.05499"
         y="77.935997"
         width="7"
         height="7"
         style="color:#000000;fill:#2e3436;paint-order:normal"
         inkscape:label="r9" />
    </g>
    <g
       id="button6-path"
       transform="translate(10.767402,-44.236872)"
       inkscape:label="button6-path">
      <rect
         id="button6-leader"
         x="474.21674"
         y="80.933426"
         width="1"
         height="1"
         style="color:#000000;text-align:start;overflow:visible;fill:#888a85;fill-opacity:1;stroke:none;stroke-linecap:round"
         inkscape:label="button6-leader" />
      <path
         id="p1"
         d="M 274.02,81.435 473.71456,81.4304"
         style="color:#000000;fill:none;stroke:#888a85;stroke-linecap:square;paint-order:normal"
         inkscape:label="p1"
         sodipodi:nodetypes="cc" />
      <rect
         id="r8"
         x="269.92999"
         y="77.935997"
         width="7"
         height="7"
         style="color:#000000;fill:#2e3436;paint-order:normal"
         inkscape:label="r8" />
    </g>
    <g
       id="button5-path"
       transform="translate(-6.496,-3.292894)">
      <rect
         id="button5-leader"
         x="491.5"
         y="147.49001"
         width="1"
         height="1"
         style="color:#000000;text-align:start;overflow:visible;fill:#888a85;fill-opacity:1;stroke:none;stroke-linecap:round" />
      <path
         id="p4"
         d="m 491,147.99 -210.13,0.004"
         style="color:#000000;fill:none;stroke:#888a85;stroke-width:1.002;stroke-linecap:square;paint-order:normal" />
      <rect
         id="r3"
         x="276.92999"
         y="144.52251"
         width="7"
         height="7"
         style="color:#000000;fill:#2e3436;paint-order:normal" />
    </g>
    <g
       id="button3-path"
       transform="translate(0,-18)"
       inkscape:label="button4-path">
      <rect
         id="button4-leader"
         x="68.806999"
         y="157.89"
         width="1"
         height="1"
         style="color:#000000;text-align:end;overflow:visible;fill:#888a85;fill-opacity:1;stroke:none;stroke-linecap:round"
         inkscape:label="button4-leader" />
      <path
         id="p2"
         d="m 70.289,158.39 h 107.65"
         style="color:#000000;fill:none;stroke:#888a85;stroke-width:0.98092;stroke-linecap:square;paint-order:normal" />
      <rect
         id="r1"
         x="173.94"
         y="154.82001"
         width="7"
         height="7"
         style="color:#000000;fill:#2e3436;paint-order:normal" />
    </g>
    <g
       id="button4-path"
       transform="translate(0,-32)"
       inkscape:label="button3-path">
      <rect
         id="button3-leader"
         x="68.814003"
         y="216.13"
         width="1"
         height="1"
         style="color:#000000;text-align:end;overflow:visible;fill:#888a85;fill-opacity:1;stroke:none;stroke-linecap:round"
         inkscape:label="button3-leader" />
      <path
         id="p3"
         d="m 69.516,216.63 h 111.39"
         style="color:#000000;fill:none;stroke:#888a85;stroke-linecap:square;paint-order:normal" />
      <rect
         id="r2"
         x="174.78"
         y="213.13"
         width="7"
         height="7"
         style="color:#000000;fill:#2e3436;paint-order:normal" />
    </g>
    <g
       id="button2-path"
       transform="translate(0,-8.6390771)"
       style="display:inline">
      <rect
         id="button2-leader"
         x="485"
         y="80.934998"
         width="1"
         height="1"
         style="color:#000000;text-align:start;overflow:visible;fill:#888a85;fill-opacity:1;stroke:none;stroke-linecap:round" />
      <path
         id="p5"
         d="m 274.02,81.435 210.48,2e-6"
         style="color:#000000;fill:none;stroke:#888a85;stroke-linecap:square;paint-order:normal" />
      <rect
         id="r4"
         x="269.86749"
         y="77.873497"
         width="7"
         height="7"
         style="color:#000000;fill:#2e3436;paint-order:normal" />
    </g>
    <g
       id="button1-path"
       transform="translate(0,-24.625)">
      <rect
         id="button1-leader"
         x="484.9939"
         y="25.584908"
         width="1"
         height="1"
         style="color:#000000;text-align:start;overflow:visible;fill:#888a85;fill-opacity:1;stroke:none;stroke-linecap:round" />
      <path
         id="p6"
         d="m 328.73806,49.05933 -0.17271,-22.98097 155.93385,0.0052"
         style="color:#000000;fill:none;stroke:#888a85;stroke-linecap:square;paint-order:normal"
         sodipodi:nodetypes="ccc" />
      <rect
         id="r5"
         x="325.23288"
         y="45.514217"
         width="7"
         height="7"
         style="color:#000000;fill:#2e3436;paint-order:normal" />
    </g>
    <g
       id="button0-path">
      <rect
         id="button0-leader"
         x="68.719"
         y="52.581"
         width="1"
         height="1"
         style="color:#000000;text-align:end;overflow:visible;fill:#888a85;fill-opacity:1;stroke:none;stroke-linecap:round" />
      <path
         id="p7"
         d="m236.35 53.081-166.19 2e-6"
         style="color:#000000;fill:none;paint-order:normal;stroke-linecap:square;stroke:#888a85" />
      <rect
         id="r6"
         x="232.85"
         y="49.581"
         width="7"
         height="7"
         style="color:#000000;fill:#2e3436;paint-order:normal" />
    </g>
  </g>
  <g
     id="LEDs"
     transform="translate(-68.792 5.9733)">
    <g
       id="led0-path"
       transform="translate(75.399 -88.914)">
      <rect
         id="led0-leader"
         x="409.6"
         y="329.02"
         width="1"
         height="1"
         style="color:#000000;text-align:start;display:inline;overflow:visible;fill:#888a85;fill-opacity:1;stroke:none;stroke-linecap:round" />
      <path
         id="p8"
         d="m410.09 329.53-124.44-5e-3"
         style="color:#000000;fill:none;paint-order:normal;stroke-linecap:square;stroke-width:.99982;stroke:#888a85" />
      <rect
         id="r7"
         x="283.33615"
         y="326.01999"
         width="7"
         height="7"
         style="color:#000000;fill:#2e3436;paint-order:normal" />
    </g>
  </g>
</svg>
